<svg width="16" height="16" viewBox="0 0 16 16" fill="none" xmlns="http://www.w3.org/2000/svg">
<path d="M13.9583 1.16557C12.4042 -0.388523 9.87579 -0.388523 8.3217 1.16557L2.38698 7.10026C2.20382 7.28341 2.20382 7.58013 2.38698 7.76329C2.57014 7.94645 2.86686 7.94645 3.05001 7.76329L8.9847 1.8286C10.1367 0.677477 12.1432 0.677477 13.2953 1.8286C14.4835 3.01682 14.4835 4.95051 13.2953 6.13873L5.00826 14.519C4.29945 15.2279 3.06451 15.2279 2.35573 14.519C1.62448 13.7878 1.62448 12.5982 2.35573 11.8669L10.3112 3.81766C10.5768 3.5521 11.0402 3.5521 11.3058 3.81766C11.58 4.09191 11.58 4.53838 11.3058 4.81266L3.68223 12.5299C3.52411 12.6881 3.52411 13.0348 3.68223 13.193C3.86539 13.3761 4.16211 13.3761 4.34526 13.193L11.9688 5.47566C12.6089 4.83551 12.6089 3.79476 11.9688 3.15463C11.3488 2.53466 10.2672 2.53557 9.6482 3.15463L1.6927 11.2039C0.604387 12.2922 0.604387 14.0937 1.6927 15.182C2.22432 15.7137 2.93082 16 3.6822 16C4.43357 16 5.14014 15.7137 5.67129 15.1821L13.9583 6.80173C15.5124 5.24763 15.5124 2.71963 13.9583 1.16557Z" fill="#650107" fill-opacity="0.38"/>
</svg>
