<svg width="20" height="20" viewBox="0 0 20 20" fill="none" xmlns="http://www.w3.org/2000/svg">
<path d="M10 12.5C7.875 12.5 6.25 10.875 6.25 8.75V3.75C6.25 1.75 7.875 0 10 0C12 0 13.75 1.625 13.75 3.75V8.75C13.75 10.75 12 12.5 10 12.5Z" fill="#650107"/>
<path d="M15 6.25V9.375C15 11.75 12.75 13.75 10.25 13.75H9.75C7.25 13.75 5 11.75 5 9.375V6.25C4.25 6.25 3.75 6.75 3.75 7.5V9.375C3.75 12.125 6 14.5 8.75 14.875V17.5C5 17.5 5.625 20 5.625 20H14.375C14.375 20 15 17.5 11.25 17.5V14.875C14 14.375 16.25 12.125 16.25 9.375V7.5C16.25 6.75 15.75 6.25 15 6.25Z" fill="#650107"/>
</svg>
