<svg width="142" height="32" viewBox="0 0 142 32" fill="none" xmlns="http://www.w3.org/2000/svg">
<path opacity="0.6" fill-rule="evenodd" clip-rule="evenodd" d="M129.707 6.12141C129.317 5.73089 129.317 5.09771 129.707 4.7072C130.098 4.31668 130.731 4.31668 131.121 4.7072L141.021 14.6067C141.145 14.7312 141.23 14.8803 141.275 15.0384C141.694 15.1579 142 15.5432 142 16C142 16.5081 141.621 16.9277 141.13 16.9916C141.116 17.0126 141.1 17.0332 141.083 17.0533C141.063 17.0767 141.043 17.0994 141.021 17.1213L131.121 27.0208C130.731 27.4113 130.098 27.4113 129.707 27.0208C129.317 26.6303 129.317 25.9971 129.707 25.6066L138.314 17H1C0.447708 17 0 16.5523 0 16C0 15.4477 0.447708 15 1 15H138.586L129.707 6.12141Z" fill="white"/>
<circle cx="71" cy="16" r="16" fill="white"/>
<path d="M83 16C83 22.6274 77.6274 28 71 28C67.5063 28 64.3613 26.5071 62.1685 24.1242C61.5925 23.4988 61.0826 22.8116 60.6487 22.0744C59.601 20.2926 59 18.2163 59 16C59 9.37257 64.3726 4 71 4C73.2168 4 75.2931 4.60098 77.0744 5.64914C77.8116 6.08261 78.4983 6.59249 79.1238 7.16898C81.5066 9.36082 83 12.5063 83 16Z" fill="#F0CD00"/>
<path d="M82.9997 16C82.9997 22.478 77.8671 27.757 71.4464 27.9916C65.0256 27.757 59.8931 22.478 59.8931 16C59.8931 9.52193 65.0256 4.24291 71.4464 4.0083C77.8671 4.24291 82.9997 9.52193 82.9997 16Z" fill="#FFDE50"/>
<path d="M79.1235 7.16901L62.1683 24.1243C61.5923 23.4988 61.0824 22.8116 60.6484 22.0745L77.0742 5.64917C77.8114 6.08264 78.4981 6.59252 79.1235 7.16901Z" fill="#FFEA94"/>
<path d="M82.1723 11.6129L66.6124 27.1727C65.5109 26.7398 64.4887 26.1486 63.5742 25.4271L80.4271 8.57422C81.1486 9.48867 81.7398 10.5109 82.1723 11.6129Z" fill="#FFEA94"/>
<path d="M80.3248 16C80.3248 21.1497 76.1497 25.3248 71 25.3248C69.2064 25.3248 67.5313 24.8183 66.1094 23.9406C65.4898 23.5586 64.9187 23.1055 64.4064 22.5932C64.0297 22.217 63.6849 21.808 63.3768 21.3716C62.9527 20.7706 62.5976 20.1173 62.3238 19.4232C61.9182 18.3971 61.69 17.2813 61.6763 16.1146C61.6753 16.0764 61.6753 16.0382 61.6753 16C61.6753 10.8503 65.8498 6.67529 71 6.67529C71.0382 6.67529 71.0769 6.67529 71.1151 6.67627C72.2818 6.68999 73.3971 6.91872 74.4232 7.32378C75.1173 7.59807 75.7706 7.95268 76.3716 8.37684C76.808 8.68542 77.2165 9.02974 77.5932 9.40639C78.1055 9.91823 78.5586 10.4898 78.9406 11.1094C79.8183 12.5313 80.3248 14.2064 80.3248 16Z" fill="#FAA300"/>
<path d="M77.5932 9.40639L64.4064 22.5932C64.0297 22.217 63.6849 21.808 63.3768 21.3716C62.9527 20.7706 62.5976 20.1173 62.3238 19.4232C61.9182 18.3971 61.69 17.2813 61.6763 16.1146C61.6753 16.0764 61.6753 16.0382 61.6753 16C61.6753 10.8503 65.8498 6.67529 71 6.67529C71.0382 6.67529 71.0769 6.67529 71.1151 6.67627C72.2818 6.68999 73.3971 6.91872 74.4232 7.32378C75.1173 7.59807 75.7706 7.95268 76.3716 8.37684C76.808 8.68542 77.2165 9.02974 77.5932 9.40639Z" fill="#FFBD00"/>
<path d="M80.3244 16C80.3244 21.1497 76.1494 25.3248 70.9997 25.3248C70.8229 25.3248 70.6475 25.3199 70.4731 25.3101C75.378 25.0373 79.2708 20.9729 79.2708 16C79.2708 11.0271 75.378 6.9628 70.4731 6.68999C70.6475 6.68019 70.8229 6.67529 70.9997 6.67529C76.1494 6.67529 80.3244 10.8503 80.3244 16Z" fill="#F68E00"/>
<path d="M70.6925 15.2836V11.5072C71.2811 11.8319 71.6807 12.4586 71.6807 13.177C71.6807 13.6837 72.0915 14.0945 72.5983 14.0945C73.105 14.0945 73.5158 13.6837 73.5158 13.177C73.5158 11.4308 72.313 9.96052 70.6925 9.55036V8.80352C70.6925 8.29678 70.2817 7.88599 69.775 7.88599C69.2683 7.88599 68.8575 8.29678 68.8575 8.80352V9.55031C67.237 9.96052 66.0342 11.4307 66.0342 13.1769C66.0342 14.2195 66.3404 15.0326 66.9703 15.6625C67.4296 16.1218 68.0397 16.4617 68.8575 16.7108V20.4931C68.2689 20.1685 67.8692 19.5419 67.8692 18.8235C67.8692 18.3167 67.4585 17.9059 66.9517 17.9059C66.445 17.9059 66.0342 18.3167 66.0342 18.8235C66.0342 20.5696 67.237 22.0399 68.8575 22.4501V23.1969C68.8575 23.7036 69.2683 24.1144 69.775 24.1144C70.2817 24.1144 70.6925 23.7036 70.6925 23.1969V22.4501C72.313 22.0399 73.5158 20.5697 73.5158 18.8235C73.5158 17.7953 73.1965 16.9547 72.5667 16.3249C72.109 15.8671 71.4913 15.524 70.6925 15.2836ZM68.2679 14.365C68.0823 14.1794 67.8693 13.8766 67.8693 13.1769C67.8693 12.4585 68.269 11.8319 68.8575 11.5072V14.7553C68.61 14.6407 68.4141 14.5112 68.2679 14.365ZM70.6925 20.4931V17.235C71.49 17.6063 71.6807 18.1376 71.6807 18.8235C71.6807 19.5419 71.2811 20.1685 70.6925 20.4931Z" fill="#F68E00"/>
<path d="M71.9171 15.2836V11.5072C72.5057 11.8319 72.9054 12.4586 72.9054 13.177C72.9054 13.6837 73.3162 14.0945 73.8229 14.0945C74.3296 14.0945 74.7404 13.6837 74.7404 13.177C74.7404 11.4308 73.5376 9.96052 71.9171 9.55036V8.80352C71.9171 8.29678 71.5064 7.88599 70.9996 7.88599C70.4929 7.88599 70.0821 8.29678 70.0821 8.80352V9.55031C68.4616 9.96052 67.2588 11.4307 67.2588 13.1769C67.2588 14.2195 67.565 15.0326 68.1949 15.6625C68.6542 16.1218 69.2643 16.4617 70.0821 16.7108V20.4931C69.4935 20.1685 69.0939 19.5419 69.0939 18.8235C69.0939 18.3167 68.6831 17.9059 68.1763 17.9059C67.6696 17.9059 67.2588 18.3167 67.2588 18.8235C67.2588 20.5696 68.4616 22.0399 70.0821 22.4501V23.1969C70.0821 23.7036 70.4929 24.1144 70.9996 24.1144C71.5064 24.1144 71.9171 23.7036 71.9171 23.1969V22.4501C73.5376 22.0399 74.7404 20.5697 74.7404 18.8235C74.7404 17.7953 74.4211 16.9547 73.7913 16.3249C73.3336 15.8671 72.7159 15.524 71.9171 15.2836ZM69.4925 14.365C69.3069 14.1794 69.0939 13.8766 69.0939 13.1769C69.0939 12.4585 69.4935 11.8319 70.0821 11.5072V14.7553C69.8346 14.6407 69.6387 14.5112 69.4925 14.365ZM71.9171 20.4931V17.235C72.7146 17.6063 72.9054 18.1376 72.9054 18.8235C72.9053 19.5419 72.5057 20.1685 71.9171 20.4931Z" fill="#FFEA94"/>
</svg>
