<svg width="8" height="12" viewBox="0 0 8 12" fill="none" xmlns="http://www.w3.org/2000/svg">
<path d="M5.15592 6.00254L0.666753 1.51317C0.543144 1.38985 0.475144 1.22498 0.475144 1.04917C0.475144 0.873268 0.543144 0.708488 0.666753 0.584976L1.06012 0.191805C1.18353 0.0680976 1.34851 0 1.52431 0C1.70012 0 1.8649 0.0680976 1.98841 0.191805L7.33349 5.53678C7.45749 5.66068 7.52539 5.82624 7.5249 6.00224C7.52539 6.17902 7.45758 6.34439 7.33349 6.46839L1.99339 11.8082C1.86988 11.9319 1.7051 12 1.52919 12C1.35339 12 1.18861 11.9319 1.065 11.8082L0.67173 11.415C0.415827 11.1591 0.415827 10.7425 0.67173 10.4867L5.15592 6.00254Z" fill="#650107" fill-opacity="0.6"/>
</svg>
