<svg width="56" height="56" viewBox="0 0 56 56" fill="none" xmlns="http://www.w3.org/2000/svg">
<g filter="url(#filter0_d_572_437)">
<circle cx="28" cy="24" r="16" fill="url(#paint0_linear_572_437)"/>
<g clip-path="url(#clip0_572_437)">
<path d="M33.1818 22.9091H29.0909V18.8182C29.0909 18.3665 28.7243 18 28.2727 18H27.7273C27.2756 18 26.9091 18.3665 26.9091 18.8182V22.9091H22.8182C22.3665 22.9091 22 23.2756 22 23.7273V24.2727C22 24.7243 22.3665 25.0909 22.8182 25.0909H26.9091V29.1818C26.9091 29.6334 27.2756 30 27.7273 30H28.2727C28.7243 30 29.0909 29.6334 29.0909 29.1818V25.0909H33.1818C33.6334 25.0909 34 24.7243 34 24.2727V23.7273C34 23.2756 33.6334 22.9091 33.1818 22.9091Z" fill="white"/>
</g>
</g>
<defs>
<filter id="filter0_d_572_437" x="0" y="0" width="56" height="56" filterUnits="userSpaceOnUse" color-interpolation-filters="sRGB">
<feFlood flood-opacity="0" result="BackgroundImageFix"/>
<feColorMatrix in="SourceAlpha" type="matrix" values="0 0 0 0 0 0 0 0 0 0 0 0 0 0 0 0 0 0 127 0" result="hardAlpha"/>
<feOffset dy="4"/>
<feGaussianBlur stdDeviation="6"/>
<feColorMatrix type="matrix" values="0 0 0 0 0.996078 0 0 0 0 0.380392 0 0 0 0 0.419608 0 0 0 0.12 0"/>
<feBlend mode="normal" in2="BackgroundImageFix" result="effect1_dropShadow_572_437"/>
<feBlend mode="normal" in="SourceGraphic" in2="effect1_dropShadow_572_437" result="shape"/>
</filter>
<linearGradient id="paint0_linear_572_437" x1="28" y1="8" x2="28" y2="40" gradientUnits="userSpaceOnUse">
<stop stop-color="#FE858D"/>
<stop offset="1" stop-color="#FE616B"/>
</linearGradient>
<clipPath id="clip0_572_437">
<rect width="12" height="12" fill="white" transform="translate(22 18)"/>
</clipPath>
</defs>
</svg>
