<svg width="32" height="32" viewBox="0 0 32 32" fill="none" xmlns="http://www.w3.org/2000/svg">
<circle cx="16" cy="16" r="15.5" stroke="#FE616B"/>
<g clip-path="url(#clip0_572_421)">
<path d="M21.1818 14.9091H17.0909V10.8182C17.0909 10.3665 16.7243 10 16.2727 10H15.7273C15.2756 10 14.9091 10.3665 14.9091 10.8182V14.9091H10.8182C10.3665 14.9091 10 15.2756 10 15.7273V16.2727C10 16.7243 10.3665 17.0909 10.8182 17.0909H14.9091V21.1818C14.9091 21.6334 15.2756 22 15.7273 22H16.2727C16.7243 22 17.0909 21.6334 17.0909 21.1818V17.0909H21.1818C21.6334 17.0909 22 16.7243 22 16.2727V15.7273C22 15.2756 21.6334 14.9091 21.1818 14.9091Z" fill="#FE616B"/>
</g>
<defs>
<clipPath id="clip0_572_421">
<rect width="12" height="12" fill="white" transform="translate(10 10)"/>
</clipPath>
</defs>
</svg>
