<svg width="230" height="36" viewBox="0 0 230 36" fill="none" xmlns="http://www.w3.org/2000/svg">
<rect width="36" height="36" rx="8" fill="white"/>
<rect x="0.5" y="0.5" width="35" height="35" rx="7.5" stroke="black" stroke-opacity="0.08"/>
<path d="M16.8441 18.0025L21.3332 13.5132C21.4569 13.3899 21.5249 13.225 21.5249 13.0492C21.5249 12.8733 21.4569 12.7085 21.3332 12.585L20.9399 12.1918C20.8165 12.0681 20.6515 12 20.4757 12C20.2999 12 20.1351 12.0681 20.0116 12.1918L14.6665 17.5368C14.5425 17.6607 14.4746 17.8262 14.4751 18.0022C14.4746 18.179 14.5424 18.3444 14.6665 18.4684L20.0066 23.8082C20.1301 23.9319 20.2949 24 20.4708 24C20.6466 24 20.8114 23.9319 20.935 23.8082L21.3283 23.415C21.5842 23.1591 21.5842 22.7425 21.3283 22.4867L16.8441 18.0025Z" fill="#650107" fill-opacity="0.2"/>
<rect x="-0.5" y="0.5" width="35" height="35" rx="7.5" transform="matrix(-1 0 0 1 229 0)" fill="white" stroke="#E8E8E8"/>
<path d="M213.156 18.0025L208.667 13.5132C208.543 13.3899 208.475 13.225 208.475 13.0492C208.475 12.8733 208.543 12.7085 208.667 12.585L209.06 12.1918C209.184 12.0681 209.349 12 209.524 12C209.7 12 209.865 12.0681 209.988 12.1918L215.333 17.5368C215.457 17.6607 215.525 17.8262 215.525 18.0022C215.525 18.179 215.458 18.3444 215.333 18.4684L209.993 23.8082C209.87 23.9319 209.705 24 209.529 24C209.353 24 209.189 23.9319 209.065 23.8082L208.672 23.415C208.416 23.1591 208.416 22.7425 208.672 22.4867L213.156 18.0025Z" fill="#650107" fill-opacity="0.6"/>
<rect x="44.5" y="0.5" width="35" height="35" rx="7.5" stroke="#FE616B"/>
<path d="M62.9147 13.2V23H61.9067V14.096H59.5967V13.2H62.9147Z" fill="#FE616B"/>
<rect x="88.5" y="0.5" width="35" height="35" rx="7.5" fill="white" stroke="#E8E8E8"/>
<path d="M109.441 22.104V23H102.567V22.286L106.641 18.296C107.155 17.792 107.5 17.358 107.677 16.994C107.864 16.6207 107.957 16.2473 107.957 15.874C107.957 15.2953 107.757 14.8473 107.355 14.53C106.963 14.2033 106.399 14.04 105.661 14.04C104.513 14.04 103.622 14.404 102.987 15.132L102.273 14.516C102.656 14.068 103.141 13.7227 103.729 13.48C104.327 13.2373 104.999 13.116 105.745 13.116C106.744 13.116 107.533 13.354 108.111 13.83C108.699 14.2967 108.993 14.9407 108.993 15.762C108.993 16.266 108.881 16.7513 108.657 17.218C108.433 17.6847 108.009 18.2213 107.383 18.828L104.051 22.104H109.441Z" fill="#650107" fill-opacity="0.6"/>
<rect x="150.5" y="0.5" width="35" height="35" rx="7.5" fill="white" stroke="#E8E8E8"/>
<path d="M170.378 17.862C170.994 18.0673 171.465 18.3753 171.792 18.786C172.128 19.1967 172.296 19.6913 172.296 20.27C172.296 20.8393 172.142 21.3387 171.834 21.768C171.526 22.188 171.083 22.5147 170.504 22.748C169.935 22.972 169.263 23.084 168.488 23.084C167.312 23.084 166.388 22.832 165.716 22.328C165.044 21.824 164.708 21.138 164.708 20.27C164.708 19.682 164.867 19.1873 165.184 18.786C165.511 18.3753 165.982 18.0673 166.598 17.862C166.094 17.666 165.711 17.386 165.45 17.022C165.189 16.6487 165.058 16.21 165.058 15.706C165.058 14.9127 165.366 14.2827 165.982 13.816C166.607 13.3493 167.443 13.116 168.488 13.116C169.179 13.116 169.781 13.2233 170.294 13.438C170.817 13.6433 171.223 13.942 171.512 14.334C171.801 14.726 171.946 15.1833 171.946 15.706C171.946 16.21 171.811 16.6487 171.54 17.022C171.269 17.386 170.882 17.666 170.378 17.862ZM166.066 15.734C166.066 16.2753 166.281 16.7047 166.71 17.022C167.139 17.3393 167.732 17.498 168.488 17.498C169.244 17.498 169.837 17.3393 170.266 17.022C170.705 16.7047 170.924 16.28 170.924 15.748C170.924 15.1973 170.7 14.7633 170.252 14.446C169.813 14.1287 169.225 13.97 168.488 13.97C167.741 13.97 167.149 14.1287 166.71 14.446C166.281 14.7633 166.066 15.1927 166.066 15.734ZM168.488 22.23C169.356 22.23 170.033 22.0527 170.518 21.698C171.013 21.3433 171.26 20.8627 171.26 20.256C171.26 19.6493 171.013 19.1733 170.518 18.828C170.033 18.4733 169.356 18.296 168.488 18.296C167.629 18.296 166.953 18.4733 166.458 18.828C165.973 19.1733 165.73 19.6493 165.73 20.256C165.73 20.872 165.973 21.3573 166.458 21.712C166.943 22.0573 167.62 22.23 168.488 22.23Z" fill="#650107" fill-opacity="0.6"/>
<path d="M133.866 23.07C133.66 23.07 133.483 22.9953 133.334 22.846C133.194 22.6967 133.124 22.5147 133.124 22.3C133.124 22.0853 133.194 21.908 133.334 21.768C133.483 21.6187 133.66 21.544 133.866 21.544C134.071 21.544 134.248 21.6187 134.398 21.768C134.547 21.908 134.622 22.0853 134.622 22.3C134.622 22.5147 134.547 22.6967 134.398 22.846C134.248 22.9953 134.071 23.07 133.866 23.07ZM137.001 23.07C136.795 23.07 136.618 22.9953 136.469 22.846C136.329 22.6967 136.259 22.5147 136.259 22.3C136.259 22.0853 136.329 21.908 136.469 21.768C136.618 21.6187 136.795 21.544 137.001 21.544C137.206 21.544 137.383 21.6187 137.533 21.768C137.682 21.908 137.757 22.0853 137.757 22.3C137.757 22.5147 137.682 22.6967 137.533 22.846C137.383 22.9953 137.206 23.07 137.001 23.07ZM140.135 23.07C139.93 23.07 139.753 22.9953 139.603 22.846C139.463 22.6967 139.393 22.5147 139.393 22.3C139.393 22.0853 139.463 21.908 139.603 21.768C139.753 21.6187 139.93 21.544 140.135 21.544C140.341 21.544 140.518 21.6187 140.667 21.768C140.817 21.908 140.891 22.0853 140.891 22.3C140.891 22.5147 140.817 22.6967 140.667 22.846C140.518 22.9953 140.341 23.07 140.135 23.07Z" fill="#650107" fill-opacity="0.6"/>
</svg>
