<svg width="8" height="6" viewBox="0 0 8 6" fill="none" xmlns="http://www.w3.org/2000/svg">
<path d="M7.68523 2.00076C7.68646 2.02277 7.68485 2.04517 7.67931 2.06742L7.18585 4.04125C7.16097 4.14069 7.07185 4.21061 6.96939 4.21115L4.00864 4.22611C4.00825 4.22611 4.0079 4.22611 4.00751 4.22611H1.04673C0.943731 4.22611 0.853981 4.15595 0.829099 4.056L0.335641 2.07469C0.329959 2.05184 0.328314 2.02881 0.32975 2.00623C0.138856 1.94609 0 1.76746 0 1.55695C0 1.29721 0.21129 1.08592 0.471028 1.08592C0.730766 1.08592 0.942056 1.29721 0.942056 1.55695C0.942056 1.70322 0.875036 1.83409 0.770094 1.92055L1.3879 2.54303C1.54404 2.70036 1.76072 2.79056 1.98239 2.79056C2.24449 2.79056 2.49439 2.66609 2.65175 2.45755L3.66708 1.11224C3.58179 1.027 3.52897 0.909232 3.52897 0.779378C3.52897 0.519639 3.74026 0.30835 4 0.30835C4.25974 0.30835 4.47103 0.519639 4.47103 0.779378C4.47103 0.905344 4.42102 1.01968 4.34019 1.10428C4.34046 1.10464 4.34079 1.10494 4.34105 1.10533L5.34902 2.45435C5.50633 2.6649 5.75713 2.79059 6.01998 2.79059C6.24368 2.79059 6.45404 2.70347 6.61222 2.54527L7.23391 1.92357C7.12676 1.83714 7.05794 1.70501 7.05794 1.55695C7.05794 1.29721 7.26923 1.08592 7.52897 1.08592C7.78871 1.08592 8 1.29721 8 1.55695C8 1.76184 7.86826 1.9361 7.68523 2.00076ZM7.13771 4.92891C7.13771 4.80504 7.03728 4.70461 6.91341 4.70461H1.11154C0.987664 4.70461 0.887237 4.80504 0.887237 4.92891V5.46723C0.887237 5.5911 0.987664 5.69153 1.11154 5.69153H6.91341C7.03728 5.69153 7.13771 5.5911 7.13771 5.46723V4.92891Z" fill="#FE616B"/>
</svg>
