<svg width="76" height="12" viewBox="0 0 76 12" fill="none" xmlns="http://www.w3.org/2000/svg">
<path d="M70 11.3324C69.8292 11.3324 69.6644 11.2705 69.5361 11.1581C69.0513 10.7342 68.5839 10.3358 68.1716 9.98445L68.1695 9.98262C66.9605 8.95238 65.9166 8.06267 65.1902 7.18624C64.3782 6.20644 64 5.27746 64 4.2626C64 3.27658 64.3381 2.36691 64.952 1.70105C65.5731 1.02731 66.4255 0.65625 67.3523 0.65625C68.045 0.65625 68.6793 0.875244 69.2377 1.3071C69.5195 1.52508 69.775 1.79187 70 2.10306C70.2251 1.79187 70.4805 1.52508 70.7623 1.3071C71.3207 0.875244 71.9551 0.65625 72.6478 0.65625C73.5745 0.65625 74.4269 1.02731 75.0481 1.70105C75.662 2.36691 76 3.27658 76 4.2626C76 5.27746 75.6219 6.20644 74.8099 7.18615C74.0835 8.06267 73.0396 8.95229 71.8309 9.98244C71.4178 10.3344 70.9497 10.7334 70.4638 11.1582C70.3355 11.2705 70.1707 11.3324 70 11.3324ZM67.3523 1.35919C66.6242 1.35919 65.9553 1.64978 65.4687 2.17749C64.9749 2.71316 64.7028 3.45364 64.7028 4.2626C64.7028 5.11614 65.0201 5.87951 65.7314 6.73772C66.4188 7.56728 67.4414 8.43868 68.6253 9.44768L68.6275 9.44951C69.0414 9.80226 69.5106 10.2022 69.999 10.6292C70.4903 10.2013 70.9602 9.8008 71.3749 9.44749C72.5588 8.43849 73.5813 7.56728 74.2687 6.73772C74.9799 5.87951 75.2971 5.11614 75.2971 4.2626C75.2971 3.45364 75.0251 2.71316 74.5313 2.17749C74.0448 1.64978 73.3758 1.35919 72.6478 1.35919C72.1144 1.35919 71.6247 1.52875 71.1923 1.8631C70.8069 2.16119 70.5385 2.53802 70.3811 2.80169C70.3002 2.93728 70.1577 3.01821 70 3.01821C69.8422 3.01821 69.6998 2.93728 69.6189 2.80169C69.4616 2.53802 69.1931 2.16119 68.8077 1.8631C68.3753 1.52875 67.8856 1.35919 67.3523 1.35919Z" fill="#FE616B"/>
<g clip-path="url(#clip0_53_57)">
<path d="M11.048 1.70105C10.4268 1.02731 9.57449 0.65625 8.6478 0.65625C7.95511 0.65625 7.32074 0.875244 6.76227 1.3071C6.48047 1.52509 6.22513 1.79178 6 2.10306C5.77496 1.79187 5.51953 1.52509 5.23764 1.3071C4.67926 0.875244 4.04489 0.65625 3.3522 0.65625C2.42551 0.65625 1.57306 1.02731 0.951874 1.70105C0.338104 2.36691 0 3.27658 0 4.2626C0 5.27747 0.378204 6.20645 1.19019 7.18625C1.91656 8.06268 2.96054 8.95239 4.16949 9.98264C4.58231 10.3345 5.05023 10.7333 5.5361 11.1581C5.66446 11.2705 5.82916 11.3324 6 11.3324C6.17075 11.3324 6.33554 11.2705 6.46371 11.1583C6.94958 10.7334 7.41779 10.3344 7.83078 9.98236C9.03955 8.9523 10.0835 8.06268 10.8099 7.18616C11.6219 6.20645 12 5.27747 12 4.26251C12 3.27658 11.6619 2.36691 11.048 1.70105Z" fill="url(#paint0_linear_53_57)"/>
</g>
<g clip-path="url(#clip1_53_57)">
<path d="M27.048 1.70105C26.4268 1.02731 25.5745 0.65625 24.6478 0.65625C23.9551 0.65625 23.3207 0.875244 22.7623 1.3071C22.4805 1.52509 22.2251 1.79178 22 2.10306C21.775 1.79187 21.5195 1.52509 21.2376 1.3071C20.6793 0.875244 20.0449 0.65625 19.3522 0.65625C18.4255 0.65625 17.5731 1.02731 16.9519 1.70105C16.3381 2.36691 16 3.27658 16 4.2626C16 5.27747 16.3782 6.20645 17.1902 7.18625C17.9166 8.06268 18.9605 8.95239 20.1695 9.98264C20.5823 10.3345 21.0502 10.7333 21.5361 11.1581C21.6645 11.2705 21.8292 11.3324 22 11.3324C22.1707 11.3324 22.3355 11.2705 22.4637 11.1583C22.9496 10.7334 23.4178 10.3344 23.8308 9.98236C25.0396 8.9523 26.0835 8.06268 26.8099 7.18616C27.6219 6.20645 28 5.27747 28 4.26251C28 3.27658 27.6619 2.36691 27.048 1.70105Z" fill="url(#paint1_linear_53_57)"/>
</g>
<g clip-path="url(#clip2_53_57)">
<path d="M43.048 1.70105C42.4268 1.02731 41.5745 0.65625 40.6478 0.65625C39.9551 0.65625 39.3207 0.875244 38.7623 1.3071C38.4805 1.52509 38.2251 1.79178 38 2.10306C37.775 1.79187 37.5195 1.52509 37.2376 1.3071C36.6793 0.875244 36.0449 0.65625 35.3522 0.65625C34.4255 0.65625 33.5731 1.02731 32.9519 1.70105C32.3381 2.36691 32 3.27658 32 4.2626C32 5.27747 32.3782 6.20645 33.1902 7.18625C33.9166 8.06268 34.9605 8.95239 36.1695 9.98264C36.5823 10.3345 37.0502 10.7333 37.5361 11.1581C37.6645 11.2705 37.8292 11.3324 38 11.3324C38.1707 11.3324 38.3355 11.2705 38.4637 11.1583C38.9496 10.7334 39.4178 10.3344 39.8308 9.98236C41.0396 8.9523 42.0835 8.06268 42.8099 7.18616C43.6219 6.20645 44 5.27747 44 4.26251C44 3.27658 43.6619 2.36691 43.048 1.70105Z" fill="url(#paint2_linear_53_57)"/>
</g>
<g clip-path="url(#clip3_53_57)">
<path d="M59.048 1.70105C58.4268 1.02731 57.5745 0.65625 56.6478 0.65625C55.9551 0.65625 55.3207 0.875244 54.7623 1.3071C54.4805 1.52509 54.2251 1.79178 54 2.10306C53.775 1.79187 53.5195 1.52509 53.2376 1.3071C52.6793 0.875244 52.0449 0.65625 51.3522 0.65625C50.4255 0.65625 49.5731 1.02731 48.9519 1.70105C48.3381 2.36691 48 3.27658 48 4.2626C48 5.27747 48.3782 6.20645 49.1902 7.18625C49.9166 8.06268 50.9605 8.95239 52.1695 9.98264C52.5823 10.3345 53.0502 10.7333 53.5361 11.1581C53.6645 11.2705 53.8292 11.3324 54 11.3324C54.1707 11.3324 54.3355 11.2705 54.4637 11.1583C54.9496 10.7334 55.4178 10.3344 55.8308 9.98236C57.0396 8.9523 58.0835 8.06268 58.8099 7.18616C59.6219 6.20645 60 5.27747 60 4.26251C60 3.27658 59.6619 2.36691 59.048 1.70105Z" fill="url(#paint3_linear_53_57)"/>
</g>
<defs>
<linearGradient id="paint0_linear_53_57" x1="6" y1="0.65625" x2="6" y2="8" gradientUnits="userSpaceOnUse">
<stop stop-color="#FE858D"/>
<stop offset="1" stop-color="#FE616B"/>
</linearGradient>
<linearGradient id="paint1_linear_53_57" x1="22" y1="0.65625" x2="22" y2="8" gradientUnits="userSpaceOnUse">
<stop stop-color="#FE858D"/>
<stop offset="1" stop-color="#FE616B"/>
</linearGradient>
<linearGradient id="paint2_linear_53_57" x1="38" y1="0.65625" x2="38" y2="8" gradientUnits="userSpaceOnUse">
<stop stop-color="#FE858D"/>
<stop offset="1" stop-color="#FE616B"/>
</linearGradient>
<linearGradient id="paint3_linear_53_57" x1="54" y1="0.65625" x2="54" y2="8" gradientUnits="userSpaceOnUse">
<stop stop-color="#FE858D"/>
<stop offset="1" stop-color="#FE616B"/>
</linearGradient>
<clipPath id="clip0_53_57">
<rect width="12" height="12" fill="white"/>
</clipPath>
<clipPath id="clip1_53_57">
<rect width="12" height="12" fill="white" transform="translate(16)"/>
</clipPath>
<clipPath id="clip2_53_57">
<rect width="12" height="12" fill="white" transform="translate(32)"/>
</clipPath>
<clipPath id="clip3_53_57">
<rect width="12" height="12" fill="white" transform="translate(48)"/>
</clipPath>
</defs>
</svg>
