<svg width="20" height="14" viewBox="0 0 20 14" fill="none" xmlns="http://www.w3.org/2000/svg">
<path d="M0 12.5555C0 13.1692 0.497461 13.6666 1.11111 13.6666H18.8889C19.5025 13.6666 20 13.1692 20 12.5555C20 11.9419 19.5025 11.4444 18.8889 11.4444H1.11111C0.497461 11.4444 0 11.9419 0 12.5555ZM0 6.99998C0 7.61363 0.497461 8.11109 1.11111 8.11109H18.8889C19.5025 8.11109 20 7.61363 20 6.99998C20 6.38633 19.5025 5.88887 18.8889 5.88887H1.11111C0.497461 5.88887 0 6.38633 0 6.99998ZM1.11111 0.333313C0.497461 0.333313 0 0.830775 0 1.44442C0 2.05807 0.497461 2.55554 1.11111 2.55554H18.8889C19.5025 2.55554 20 2.05807 20 1.44442C20 0.830775 19.5025 0.333313 18.8889 0.333313H1.11111Z" fill="white"/>
</svg>
